# xmcd
#
# Track frame offsets:
# 150
# 25000
# 50297
#
# Disc length: 925 seconds
#
# Revision: 1
# Processed by: cddbd v1.5.2PL0 Copyright (c) Steve Scherf et al.
# Submitted via: CedeCatalogueitor 2.6.0.6 http://personales.ya.com/cdcatalogueitor
#
DISCID=18039b03
DTITLE=Cia. Elèctrica Dharma - Mompou's Mood
DYEAR=2009
DGENRE=
TTITLE0=Mompou's Mood
TTITLE1=Patum Jack Blues
TTITLE2=Mariagneta
EXTD=
EXTT0=
EXTT1=
EXTT2=
PLAYORDER=
